<?xml version="1.0" encoding="UTF-8" standalone="no"?>
<!DOCTYPE svg PUBLIC "-//W3C//DTD SVG 1.1//EN"
 "http://www.w3.org/Graphics/SVG/1.1/DTD/svg11.dtd">
<!-- Generated by graphviz version 2.40.1 (20161225.0304)
 -->
<!-- Title: dependencies Pages: 1 -->
<svg width="773pt" height="284pt"
 viewBox="0.00 0.00 773.00 284.00" xmlns="http://www.w3.org/2000/svg" xmlns:xlink="http://www.w3.org/1999/xlink">
<g id="graph0" class="graph" transform="scale(1 1) rotate(0) translate(4 280)">
<title>dependencies</title>
<polygon fill="#ffffff" stroke="transparent" points="-4,4 -4,-280 769,-280 769,4 -4,4"/>
<text text-anchor="start" x="361.5091" y="-42.4" font-family="sans-serif" font-weight="bold" font-size="14.00" fill="#000000">Legend</text>
<polygon fill="#ffffb3" stroke="transparent" points="148.5,-10 148.5,-30 168.5,-30 168.5,-10 148.5,-10"/>
<text text-anchor="start" x="172.129" y="-15.4" font-family="sans-serif" font-size="14.00" fill="#000000"> &#160;Declarations</text>
<polygon fill="#8dd3c7" stroke="transparent" points="261.5,-10 261.5,-30 281.5,-30 281.5,-10 261.5,-10"/>
<text text-anchor="start" x="285.2251" y="-15.4" font-family="sans-serif" font-size="14.00" fill="#000000"> &#160;Module</text>
<polygon fill="#80b1d3" stroke="transparent" points="347.5,-10 347.5,-30 367.5,-30 367.5,-10 347.5,-10"/>
<text text-anchor="start" x="371.2812" y="-15.4" font-family="sans-serif" font-size="14.00" fill="#000000"> &#160;Bootstrap</text>
<polygon fill="#fdb462" stroke="transparent" points="444.5,-10 444.5,-30 464.5,-30 464.5,-10 444.5,-10"/>
<text text-anchor="start" x="468.1732" y="-15.4" font-family="sans-serif" font-size="14.00" fill="#000000"> &#160;Providers</text>
<polygon fill="#fb8072" stroke="transparent" points="540.5,-10 540.5,-30 560.5,-30 560.5,-10 540.5,-10"/>
<text text-anchor="start" x="564.2258" y="-15.4" font-family="sans-serif" font-size="14.00" fill="#000000"> &#160;Exports</text>
<g id="clust1" class="cluster">
<title>cluster_MainModule</title>
<polygon fill="none" stroke="#000000" stroke-dasharray="1,5" points="8,-70 8,-268 757,-268 757,-70 8,-70"/>
</g>
<g id="clust2" class="cluster">
<title>cluster_MainModule_declarations</title>
<polygon fill="none" stroke="#000000" points="623,-78 623,-130 749,-130 749,-78 623,-78"/>
</g>
<g id="clust4" class="cluster">
<title>cluster_MainModule_imports</title>
<polygon fill="none" stroke="#000000" points="16,-78 16,-130 615,-130 615,-78 16,-78"/>
</g>
<g id="clust5" class="cluster">
<title>cluster_MainModule_exports</title>
<polygon fill="none" stroke="#000000" points="330,-208 330,-260 460,-260 460,-208 330,-208"/>
</g>
<!-- MainComponent -->
<g id="node1" class="node">
<title>MainComponent</title>
<polygon fill="#ffffb3" stroke="#000000" points="741.3823,-122 630.6177,-122 630.6177,-86 741.3823,-86 741.3823,-122"/>
<text text-anchor="middle" x="686" y="-99.8" font-family="Times,serif" font-size="14.00" fill="#000000">MainComponent</text>
</g>
<!-- MainModule -->
<g id="node2" class="node">
<title>MainModule</title>
<polygon fill="#8dd3c7" stroke="#000000" points="439.5997,-187 436.5997,-191 415.5997,-191 412.5997,-187 350.4003,-187 350.4003,-151 439.5997,-151 439.5997,-187"/>
<text text-anchor="middle" x="395" y="-164.8" font-family="Times,serif" font-size="14.00" fill="#000000">MainModule</text>
</g>
<!-- MainComponent&#45;&gt;MainModule -->
<g id="edge1" class="edge">
<title>MainComponent&#45;&gt;MainModule</title>
<path fill="none" stroke="#000000" d="M686,-122.2843C686,-143.3211 686,-175 686,-175 686,-175 449.831,-175 449.831,-175"/>
<polygon fill="#000000" stroke="#000000" points="449.8311,-171.5001 439.831,-175 449.831,-178.5001 449.8311,-171.5001"/>
</g>
<!-- MainComponent  -->
<g id="node8" class="node">
<title>MainComponent </title>
<polygon fill="#fb8072" stroke="#000000" points="452.3828,-252 337.6172,-252 337.6172,-216 452.3828,-216 452.3828,-252"/>
<text text-anchor="middle" x="395" y="-229.8" font-family="Times,serif" font-size="14.00" fill="#000000">MainComponent </text>
</g>
<!-- MainModule&#45;&gt;MainComponent  -->
<g id="edge7" class="edge">
<title>MainModule&#45;&gt;MainComponent </title>
<path fill="none" stroke="#000000" stroke-dasharray="5,2" d="M395,-187.1061C395,-187.1061 395,-205.991 395,-205.991"/>
<polygon fill="#000000" stroke="#000000" points="391.5001,-205.9909 395,-215.991 398.5001,-205.991 391.5001,-205.9909"/>
</g>
<!-- ListModule -->
<g id="node3" class="node">
<title>ListModule</title>
<polygon fill="#8dd3c7" stroke="#000000" points="606.8289,-122 603.8289,-126 582.8289,-126 579.8289,-122 525.1711,-122 525.1711,-86 606.8289,-86 606.8289,-122"/>
<text text-anchor="middle" x="566" y="-99.8" font-family="Times,serif" font-size="14.00" fill="#000000">ListModule</text>
</g>
<!-- ListModule&#45;&gt;MainModule -->
<g id="edge2" class="edge">
<title>ListModule&#45;&gt;MainModule</title>
<path fill="none" stroke="#000000" d="M566,-122.0225C566,-139.3734 566,-163 566,-163 566,-163 449.9282,-163 449.9282,-163"/>
<polygon fill="#000000" stroke="#000000" points="449.9283,-159.5001 439.9282,-163 449.9282,-166.5001 449.9283,-159.5001"/>
</g>
<!-- LoginModule -->
<g id="node4" class="node">
<title>LoginModule</title>
<polygon fill="#8dd3c7" stroke="#000000" points="507.493,-122 504.493,-126 483.493,-126 480.493,-122 414.507,-122 414.507,-86 507.493,-86 507.493,-122"/>
<text text-anchor="middle" x="461" y="-99.8" font-family="Times,serif" font-size="14.00" fill="#000000">LoginModule</text>
</g>
<!-- LoginModule&#45;&gt;MainModule -->
<g id="edge3" class="edge">
<title>LoginModule&#45;&gt;MainModule</title>
<path fill="none" stroke="#000000" d="M427.0267,-122.1061C427.0267,-122.1061 427.0267,-140.991 427.0267,-140.991"/>
<polygon fill="#000000" stroke="#000000" points="423.5267,-140.9909 427.0267,-150.991 430.5267,-140.991 423.5267,-140.9909"/>
</g>
<!-- MainRoutingModule -->
<g id="node5" class="node">
<title>MainRoutingModule</title>
<polygon fill="#8dd3c7" stroke="#000000" points="396.2176,-122 393.2176,-126 372.2176,-126 369.2176,-122 261.7824,-122 261.7824,-86 396.2176,-86 396.2176,-122"/>
<text text-anchor="middle" x="329" y="-99.8" font-family="Times,serif" font-size="14.00" fill="#000000">MainRoutingModule</text>
</g>
<!-- MainRoutingModule&#45;&gt;MainModule -->
<g id="edge4" class="edge">
<title>MainRoutingModule&#45;&gt;MainModule</title>
<path fill="none" stroke="#000000" d="M373.2795,-122.1061C373.2795,-122.1061 373.2795,-140.991 373.2795,-140.991"/>
<polygon fill="#000000" stroke="#000000" points="369.7795,-140.9909 373.2795,-150.991 376.7795,-140.991 369.7795,-140.9909"/>
</g>
<!-- ScreensModule -->
<g id="node6" class="node">
<title>ScreensModule</title>
<polygon fill="#8dd3c7" stroke="#000000" points="243.5814,-122 240.5814,-126 219.5814,-126 216.5814,-122 140.4186,-122 140.4186,-86 243.5814,-86 243.5814,-122"/>
<text text-anchor="middle" x="192" y="-99.8" font-family="Times,serif" font-size="14.00" fill="#000000">ScreensModule</text>
</g>
<!-- ScreensModule&#45;&gt;MainModule -->
<g id="edge5" class="edge">
<title>ScreensModule&#45;&gt;MainModule</title>
<path fill="none" stroke="#000000" d="M192,-122.0225C192,-139.3734 192,-163 192,-163 192,-163 340.1995,-163 340.1995,-163"/>
<polygon fill="#000000" stroke="#000000" points="340.1995,-166.5001 350.1995,-163 340.1994,-159.5001 340.1995,-166.5001"/>
</g>
<!-- SharedModule -->
<g id="node7" class="node">
<title>SharedModule</title>
<polygon fill="#8dd3c7" stroke="#000000" points="122.4231,-122 119.4231,-126 98.4231,-126 95.4231,-122 23.5769,-122 23.5769,-86 122.4231,-86 122.4231,-122"/>
<text text-anchor="middle" x="73" y="-99.8" font-family="Times,serif" font-size="14.00" fill="#000000">SharedModule</text>
</g>
<!-- SharedModule&#45;&gt;MainModule -->
<g id="edge6" class="edge">
<title>SharedModule&#45;&gt;MainModule</title>
<path fill="none" stroke="#000000" d="M73,-122.2843C73,-143.3211 73,-175 73,-175 73,-175 340.2273,-175 340.2273,-175"/>
<polygon fill="#000000" stroke="#000000" points="340.2273,-178.5001 350.2273,-175 340.2272,-171.5001 340.2273,-178.5001"/>
</g>
</g>
</svg>
