<?xml version="1.0" encoding="UTF-8" standalone="no"?>
<!DOCTYPE svg PUBLIC "-//W3C//DTD SVG 1.1//EN"
 "http://www.w3.org/Graphics/SVG/1.1/DTD/svg11.dtd">
<!-- Generated by graphviz version 2.40.1 (20161225.0304)
 -->
<!-- Title: dependencies Pages: 1 -->
<svg width="552pt" height="284pt"
 viewBox="0.00 0.00 552.00 284.00" xmlns="http://www.w3.org/2000/svg" xmlns:xlink="http://www.w3.org/1999/xlink">
<g id="graph0" class="graph" transform="scale(1 1) rotate(0) translate(4 280)">
<title>dependencies</title>
<polygon fill="#ffffff" stroke="transparent" points="-4,4 -4,-280 548,-280 548,4 -4,4"/>
<text text-anchor="start" x="251.0091" y="-42.4" font-family="sans-serif" font-weight="bold" font-size="14.00" fill="#000000">Legend</text>
<polygon fill="#ffffb3" stroke="transparent" points="38,-10 38,-30 58,-30 58,-10 38,-10"/>
<text text-anchor="start" x="61.629" y="-15.4" font-family="sans-serif" font-size="14.00" fill="#000000"> &#160;Declarations</text>
<polygon fill="#8dd3c7" stroke="transparent" points="151,-10 151,-30 171,-30 171,-10 151,-10"/>
<text text-anchor="start" x="174.7251" y="-15.4" font-family="sans-serif" font-size="14.00" fill="#000000"> &#160;Module</text>
<polygon fill="#80b1d3" stroke="transparent" points="237,-10 237,-30 257,-30 257,-10 237,-10"/>
<text text-anchor="start" x="260.7812" y="-15.4" font-family="sans-serif" font-size="14.00" fill="#000000"> &#160;Bootstrap</text>
<polygon fill="#fdb462" stroke="transparent" points="334,-10 334,-30 354,-30 354,-10 334,-10"/>
<text text-anchor="start" x="357.6732" y="-15.4" font-family="sans-serif" font-size="14.00" fill="#000000"> &#160;Providers</text>
<polygon fill="#fb8072" stroke="transparent" points="430,-10 430,-30 450,-30 450,-10 430,-10"/>
<text text-anchor="start" x="453.7258" y="-15.4" font-family="sans-serif" font-size="14.00" fill="#000000"> &#160;Exports</text>
<g id="clust1" class="cluster">
<title>cluster_ComponentsModule</title>
<polygon fill="none" stroke="#000000" stroke-dasharray="1,5" points="8,-70 8,-268 536,-268 536,-70 8,-70"/>
</g>
<g id="clust2" class="cluster">
<title>cluster_ComponentsModule_declarations</title>
<polygon fill="none" stroke="#000000" points="16,-78 16,-130 528,-130 528,-78 16,-78"/>
</g>
<g id="clust7" class="cluster">
<title>cluster_ComponentsModule_exports</title>
<polygon fill="none" stroke="#000000" points="95,-208 95,-260 449,-260 449,-208 95,-208"/>
</g>
<!-- CmpButtonComponent -->
<g id="node1" class="node">
<title>CmpButtonComponent</title>
<polygon fill="#ffffb3" stroke="#000000" points="520.1778,-122 373.8222,-122 373.8222,-86 520.1778,-86 520.1778,-122"/>
<text text-anchor="middle" x="447" y="-99.8" font-family="Times,serif" font-size="14.00" fill="#000000">CmpButtonComponent</text>
</g>
<!-- ComponentsModule -->
<g id="node4" class="node">
<title>ComponentsModule</title>
<polygon fill="#8dd3c7" stroke="#000000" points="346.3272,-187 343.3272,-191 322.3272,-191 319.3272,-187 215.6728,-187 215.6728,-151 346.3272,-151 346.3272,-187"/>
<text text-anchor="middle" x="281" y="-164.8" font-family="Times,serif" font-size="14.00" fill="#000000">ComponentsModule</text>
</g>
<!-- CmpButtonComponent&#45;&gt;ComponentsModule -->
<g id="edge1" class="edge">
<title>CmpButtonComponent&#45;&gt;ComponentsModule</title>
<path fill="none" stroke="#000000" d="M407.4483,-122.1061C407.4483,-141.3391 407.4483,-169 407.4483,-169 407.4483,-169 356.4465,-169 356.4465,-169"/>
<polygon fill="#000000" stroke="#000000" points="356.4465,-165.5001 346.4465,-169 356.4464,-172.5001 356.4465,-165.5001"/>
</g>
<!-- CmpHeaderComponent -->
<g id="node2" class="node">
<title>CmpHeaderComponent</title>
<polygon fill="#ffffb3" stroke="#000000" points="355.4706,-122 206.5294,-122 206.5294,-86 355.4706,-86 355.4706,-122"/>
<text text-anchor="middle" x="281" y="-99.8" font-family="Times,serif" font-size="14.00" fill="#000000">CmpHeaderComponent</text>
</g>
<!-- CmpHeaderComponent&#45;&gt;ComponentsModule -->
<g id="edge2" class="edge">
<title>CmpHeaderComponent&#45;&gt;ComponentsModule</title>
<path fill="none" stroke="#000000" d="M281,-122.1061C281,-122.1061 281,-140.991 281,-140.991"/>
<polygon fill="#000000" stroke="#000000" points="277.5001,-140.9909 281,-150.991 284.5001,-140.991 277.5001,-140.9909"/>
</g>
<!-- CmpSearchbarComponent -->
<g id="node3" class="node">
<title>CmpSearchbarComponent</title>
<polygon fill="#ffffb3" stroke="#000000" points="188.0225,-122 23.9775,-122 23.9775,-86 188.0225,-86 188.0225,-122"/>
<text text-anchor="middle" x="106" y="-99.8" font-family="Times,serif" font-size="14.00" fill="#000000">CmpSearchbarComponent</text>
</g>
<!-- CmpSearchbarComponent&#45;&gt;ComponentsModule -->
<g id="edge3" class="edge">
<title>CmpSearchbarComponent&#45;&gt;ComponentsModule</title>
<path fill="none" stroke="#000000" d="M145.625,-122.1061C145.625,-141.3391 145.625,-169 145.625,-169 145.625,-169 205.6917,-169 205.6917,-169"/>
<polygon fill="#000000" stroke="#000000" points="205.6917,-172.5001 215.6917,-169 205.6917,-165.5001 205.6917,-172.5001"/>
</g>
<!-- CmpHeaderComponent  -->
<g id="node5" class="node">
<title>CmpHeaderComponent </title>
<polygon fill="#fb8072" stroke="#000000" points="441.4713,-252 288.5287,-252 288.5287,-216 441.4713,-216 441.4713,-252"/>
<text text-anchor="middle" x="365" y="-229.8" font-family="Times,serif" font-size="14.00" fill="#000000">CmpHeaderComponent </text>
</g>
<!-- ComponentsModule&#45;&gt;CmpHeaderComponent  -->
<g id="edge4" class="edge">
<title>ComponentsModule&#45;&gt;CmpHeaderComponent </title>
<path fill="none" stroke="#000000" stroke-dasharray="5,2" d="M317.4641,-187.1061C317.4641,-187.1061 317.4641,-205.991 317.4641,-205.991"/>
<polygon fill="#000000" stroke="#000000" points="313.9641,-205.9909 317.4641,-215.991 320.9641,-205.991 313.9641,-205.9909"/>
</g>
<!-- CmpSearchbarComponent  -->
<g id="node6" class="node">
<title>CmpSearchbarComponent </title>
<polygon fill="#fb8072" stroke="#000000" points="271.0218,-252 102.9782,-252 102.9782,-216 271.0218,-216 271.0218,-252"/>
<text text-anchor="middle" x="187" y="-229.8" font-family="Times,serif" font-size="14.00" fill="#000000">CmpSearchbarComponent </text>
</g>
<!-- ComponentsModule&#45;&gt;CmpSearchbarComponent  -->
<g id="edge5" class="edge">
<title>ComponentsModule&#45;&gt;CmpSearchbarComponent </title>
<path fill="none" stroke="#000000" stroke-dasharray="5,2" d="M243.4238,-187.1061C243.4238,-187.1061 243.4238,-205.991 243.4238,-205.991"/>
<polygon fill="#000000" stroke="#000000" points="239.9238,-205.9909 243.4238,-215.991 246.9238,-205.991 239.9238,-205.9909"/>
</g>
</g>
</svg>
