<?xml version="1.0" encoding="UTF-8" standalone="no"?>
<!DOCTYPE svg PUBLIC "-//W3C//DTD SVG 1.1//EN"
 "http://www.w3.org/Graphics/SVG/1.1/DTD/svg11.dtd">
<!-- Generated by graphviz version 2.40.1 (20161225.0304)
 -->
<!-- Title: dependencies Pages: 1 -->
<svg width="718pt" height="284pt"
 viewBox="0.00 0.00 718.00 284.00" xmlns="http://www.w3.org/2000/svg" xmlns:xlink="http://www.w3.org/1999/xlink">
<g id="graph0" class="graph" transform="scale(1 1) rotate(0) translate(4 280)">
<title>dependencies</title>
<polygon fill="#ffffff" stroke="transparent" points="-4,4 -4,-280 714,-280 714,4 -4,4"/>
<text text-anchor="start" x="334.0091" y="-42.4" font-family="sans-serif" font-weight="bold" font-size="14.00" fill="#000000">Legend</text>
<polygon fill="#ffffb3" stroke="transparent" points="121,-10 121,-30 141,-30 141,-10 121,-10"/>
<text text-anchor="start" x="144.629" y="-15.4" font-family="sans-serif" font-size="14.00" fill="#000000"> &#160;Declarations</text>
<polygon fill="#8dd3c7" stroke="transparent" points="234,-10 234,-30 254,-30 254,-10 234,-10"/>
<text text-anchor="start" x="257.7251" y="-15.4" font-family="sans-serif" font-size="14.00" fill="#000000"> &#160;Module</text>
<polygon fill="#80b1d3" stroke="transparent" points="320,-10 320,-30 340,-30 340,-10 320,-10"/>
<text text-anchor="start" x="343.7812" y="-15.4" font-family="sans-serif" font-size="14.00" fill="#000000"> &#160;Bootstrap</text>
<polygon fill="#fdb462" stroke="transparent" points="417,-10 417,-30 437,-30 437,-10 417,-10"/>
<text text-anchor="start" x="440.6732" y="-15.4" font-family="sans-serif" font-size="14.00" fill="#000000"> &#160;Providers</text>
<polygon fill="#fb8072" stroke="transparent" points="513,-10 513,-30 533,-30 533,-10 513,-10"/>
<text text-anchor="start" x="536.7258" y="-15.4" font-family="sans-serif" font-size="14.00" fill="#000000"> &#160;Exports</text>
<g id="clust1" class="cluster">
<title>cluster_ComponentsModule</title>
<polygon fill="none" stroke="#000000" stroke-dasharray="1,5" points="8,-70 8,-268 702,-268 702,-70 8,-70"/>
</g>
<g id="clust2" class="cluster">
<title>cluster_ComponentsModule_declarations</title>
<polygon fill="none" stroke="#000000" points="24,-78 24,-130 688,-130 688,-78 24,-78"/>
</g>
<g id="clust8" class="cluster">
<title>cluster_ComponentsModule_exports</title>
<polygon fill="none" stroke="#000000" points="16,-208 16,-260 694,-260 694,-208 16,-208"/>
</g>
<!-- CmpButtonComponent -->
<g id="node1" class="node">
<title>CmpButtonComponent</title>
<polygon fill="#ffffb3" stroke="#000000" points="680.1778,-122 533.8222,-122 533.8222,-86 680.1778,-86 680.1778,-122"/>
<text text-anchor="middle" x="607" y="-99.8" font-family="Times,serif" font-size="14.00" fill="#000000">CmpButtonComponent</text>
</g>
<!-- ComponentsModule -->
<g id="node5" class="node">
<title>ComponentsModule</title>
<polygon fill="#8dd3c7" stroke="#000000" points="349.3272,-187 346.3272,-191 325.3272,-191 322.3272,-187 218.6728,-187 218.6728,-151 349.3272,-151 349.3272,-187"/>
<text text-anchor="middle" x="284" y="-164.8" font-family="Times,serif" font-size="14.00" fill="#000000">ComponentsModule</text>
</g>
<!-- CmpButtonComponent&#45;&gt;ComponentsModule -->
<g id="edge1" class="edge">
<title>CmpButtonComponent&#45;&gt;ComponentsModule</title>
<path fill="none" stroke="#000000" d="M632.1962,-122.2667C632.1962,-140.5552 632.1962,-166 632.1962,-166 632.1962,-166 359.493,-166 359.493,-166"/>
<polygon fill="#000000" stroke="#000000" points="359.4931,-162.5001 349.493,-166 359.493,-169.5001 359.4931,-162.5001"/>
</g>
<!-- CmpHeaderComponent -->
<g id="node2" class="node">
<title>CmpHeaderComponent</title>
<polygon fill="#ffffb3" stroke="#000000" points="515.4706,-122 366.5294,-122 366.5294,-86 515.4706,-86 515.4706,-122"/>
<text text-anchor="middle" x="441" y="-99.8" font-family="Times,serif" font-size="14.00" fill="#000000">CmpHeaderComponent</text>
</g>
<!-- CmpHeaderComponent&#45;&gt;ComponentsModule -->
<g id="edge2" class="edge">
<title>CmpHeaderComponent&#45;&gt;ComponentsModule</title>
<path fill="none" stroke="#000000" d="M465.8284,-122.0091C465.8284,-138.0494 465.8284,-159 465.8284,-159 465.8284,-159 359.3873,-159 359.3873,-159"/>
<polygon fill="#000000" stroke="#000000" points="359.3874,-155.5001 349.3873,-159 359.3873,-162.5001 359.3874,-155.5001"/>
</g>
<!-- CmpItemComponent -->
<g id="node3" class="node">
<title>CmpItemComponent</title>
<polygon fill="#ffffb3" stroke="#000000" points="348.2162,-122 213.7838,-122 213.7838,-86 348.2162,-86 348.2162,-122"/>
<text text-anchor="middle" x="281" y="-99.8" font-family="Times,serif" font-size="14.00" fill="#000000">CmpItemComponent</text>
</g>
<!-- CmpItemComponent&#45;&gt;ComponentsModule -->
<g id="edge3" class="edge">
<title>CmpItemComponent&#45;&gt;ComponentsModule</title>
<path fill="none" stroke="#000000" d="M283.4723,-122.1061C283.4723,-122.1061 283.4723,-140.991 283.4723,-140.991"/>
<polygon fill="#000000" stroke="#000000" points="279.9724,-140.9909 283.4723,-150.991 286.9724,-140.991 279.9724,-140.9909"/>
</g>
<!-- CmpSearchbarComponent -->
<g id="node4" class="node">
<title>CmpSearchbarComponent</title>
<polygon fill="#ffffb3" stroke="#000000" points="196.0225,-122 31.9775,-122 31.9775,-86 196.0225,-86 196.0225,-122"/>
<text text-anchor="middle" x="114" y="-99.8" font-family="Times,serif" font-size="14.00" fill="#000000">CmpSearchbarComponent</text>
</g>
<!-- CmpSearchbarComponent&#45;&gt;ComponentsModule -->
<g id="edge4" class="edge">
<title>CmpSearchbarComponent&#45;&gt;ComponentsModule</title>
<path fill="none" stroke="#000000" d="M138.587,-122.0225C138.587,-139.3734 138.587,-163 138.587,-163 138.587,-163 208.5251,-163 208.5251,-163"/>
<polygon fill="#000000" stroke="#000000" points="208.5251,-166.5001 218.5251,-163 208.5251,-159.5001 208.5251,-166.5001"/>
</g>
<!-- CmpButtonComponent  -->
<g id="node6" class="node">
<title>CmpButtonComponent </title>
<polygon fill="#fb8072" stroke="#000000" points="686.1775,-252 535.8225,-252 535.8225,-216 686.1775,-216 686.1775,-252"/>
<text text-anchor="middle" x="611" y="-229.8" font-family="Times,serif" font-size="14.00" fill="#000000">CmpButtonComponent </text>
</g>
<!-- ComponentsModule&#45;&gt;CmpButtonComponent  -->
<g id="edge5" class="edge">
<title>ComponentsModule&#45;&gt;CmpButtonComponent </title>
<path fill="none" stroke="#000000" stroke-dasharray="5,2" d="M349.4773,-173C437.7649,-173 584.0538,-173 584.0538,-173 584.0538,-173 584.0538,-205.698 584.0538,-205.698"/>
<polygon fill="#000000" stroke="#000000" points="580.5539,-205.698 584.0538,-215.698 587.5539,-205.698 580.5539,-205.698"/>
</g>
<!-- CmpHeaderComponent  -->
<g id="node7" class="node">
<title>CmpHeaderComponent </title>
<polygon fill="#fb8072" stroke="#000000" points="518.4713,-252 365.5287,-252 365.5287,-216 518.4713,-216 518.4713,-252"/>
<text text-anchor="middle" x="442" y="-229.8" font-family="Times,serif" font-size="14.00" fill="#000000">CmpHeaderComponent </text>
</g>
<!-- ComponentsModule&#45;&gt;CmpHeaderComponent  -->
<g id="edge6" class="edge">
<title>ComponentsModule&#45;&gt;CmpHeaderComponent </title>
<path fill="none" stroke="#000000" stroke-dasharray="5,2" d="M349.3114,-180C382.6104,-180 416.1716,-180 416.1716,-180 416.1716,-180 416.1716,-205.7181 416.1716,-205.7181"/>
<polygon fill="#000000" stroke="#000000" points="412.6717,-205.718 416.1716,-215.7181 419.6717,-205.7181 412.6717,-205.718"/>
</g>
<!-- CmpItemComponent  -->
<g id="node8" class="node">
<title>CmpItemComponent </title>
<polygon fill="#fb8072" stroke="#000000" points="347.7163,-252 210.2837,-252 210.2837,-216 347.7163,-216 347.7163,-252"/>
<text text-anchor="middle" x="279" y="-229.8" font-family="Times,serif" font-size="14.00" fill="#000000">CmpItemComponent </text>
</g>
<!-- ComponentsModule&#45;&gt;CmpItemComponent  -->
<g id="edge7" class="edge">
<title>ComponentsModule&#45;&gt;CmpItemComponent </title>
<path fill="none" stroke="#000000" stroke-dasharray="5,2" d="M283.3473,-187.1061C283.3473,-187.1061 283.3473,-205.991 283.3473,-205.991"/>
<polygon fill="#000000" stroke="#000000" points="279.8474,-205.9909 283.3473,-215.991 286.8474,-205.991 279.8474,-205.9909"/>
</g>
<!-- CmpSearchbarComponent  -->
<g id="node9" class="node">
<title>CmpSearchbarComponent </title>
<polygon fill="#fb8072" stroke="#000000" points="192.0218,-252 23.9782,-252 23.9782,-216 192.0218,-216 192.0218,-252"/>
<text text-anchor="middle" x="108" y="-229.8" font-family="Times,serif" font-size="14.00" fill="#000000">CmpSearchbarComponent </text>
</g>
<!-- ComponentsModule&#45;&gt;CmpSearchbarComponent  -->
<g id="edge8" class="edge">
<title>ComponentsModule&#45;&gt;CmpSearchbarComponent </title>
<path fill="none" stroke="#000000" stroke-dasharray="5,2" d="M218.6179,-175C160.6646,-175 85.163,-175 85.163,-175 85.163,-175 85.163,-205.9775 85.163,-205.9775"/>
<polygon fill="#000000" stroke="#000000" points="81.6629,-205.9775 85.163,-215.9775 88.6629,-205.9774 81.6629,-205.9775"/>
</g>
</g>
</svg>
