<?xml version="1.0" encoding="UTF-8" standalone="no"?>
<!DOCTYPE svg PUBLIC "-//W3C//DTD SVG 1.1//EN"
 "http://www.w3.org/Graphics/SVG/1.1/DTD/svg11.dtd">
<!-- Generated by graphviz version 2.40.1 (20161225.0304)
 -->
<!-- Title: dependencies Pages: 1 -->
<svg width="1825pt" height="428pt"
 viewBox="0.00 0.00 1825.00 428.00" xmlns="http://www.w3.org/2000/svg" xmlns:xlink="http://www.w3.org/1999/xlink">
<g id="graph0" class="graph" transform="scale(1 1) rotate(0) translate(4 424)">
<title>dependencies</title>
<polygon fill="#ffffff" stroke="transparent" points="-4,4 -4,-424 1821,-424 1821,4 -4,4"/>
<text text-anchor="start" x="887.5091" y="-42.4" font-family="sans-serif" font-weight="bold" font-size="14.00" fill="#000000">Legend</text>
<polygon fill="#ffffb3" stroke="transparent" points="674.5,-10 674.5,-30 694.5,-30 694.5,-10 674.5,-10"/>
<text text-anchor="start" x="698.129" y="-15.4" font-family="sans-serif" font-size="14.00" fill="#000000"> &#160;Declarations</text>
<polygon fill="#8dd3c7" stroke="transparent" points="787.5,-10 787.5,-30 807.5,-30 807.5,-10 787.5,-10"/>
<text text-anchor="start" x="811.2251" y="-15.4" font-family="sans-serif" font-size="14.00" fill="#000000"> &#160;Module</text>
<polygon fill="#80b1d3" stroke="transparent" points="873.5,-10 873.5,-30 893.5,-30 893.5,-10 873.5,-10"/>
<text text-anchor="start" x="897.2812" y="-15.4" font-family="sans-serif" font-size="14.00" fill="#000000"> &#160;Bootstrap</text>
<polygon fill="#fdb462" stroke="transparent" points="970.5,-10 970.5,-30 990.5,-30 990.5,-10 970.5,-10"/>
<text text-anchor="start" x="994.1732" y="-15.4" font-family="sans-serif" font-size="14.00" fill="#000000"> &#160;Providers</text>
<polygon fill="#fb8072" stroke="transparent" points="1066.5,-10 1066.5,-30 1086.5,-30 1086.5,-10 1066.5,-10"/>
<text text-anchor="start" x="1090.2258" y="-15.4" font-family="sans-serif" font-size="14.00" fill="#000000"> &#160;Exports</text>
<g id="clust1" class="cluster">
<title>cluster_AppModule</title>
<polygon fill="none" stroke="#000000" stroke-dasharray="1,5" points="432,-214 432,-412 578,-412 578,-214 432,-214"/>
</g>
<g id="clust3" class="cluster">
<title>cluster_AppModule_imports</title>
<polygon fill="none" stroke="#000000" points="445,-222 445,-274 551,-274 551,-222 445,-222"/>
</g>
<g id="clust5" class="cluster">
<title>cluster_AppModule_bootstrap</title>
<polygon fill="none" stroke="#000000" points="440,-352 440,-404 570,-404 570,-352 440,-352"/>
</g>
<g id="clust7" class="cluster">
<title>cluster_ComponentsModule</title>
<polygon fill="none" stroke="#000000" stroke-dasharray="1,5" points="1281,-70 1281,-282 1809,-282 1809,-70 1281,-70"/>
</g>
<g id="clust8" class="cluster">
<title>cluster_ComponentsModule_declarations</title>
<polygon fill="none" stroke="#000000" points="1289,-78 1289,-130 1801,-130 1801,-78 1289,-78"/>
</g>
<g id="clust13" class="cluster">
<title>cluster_ComponentsModule_exports</title>
<polygon fill="none" stroke="#000000" points="1368,-222 1368,-274 1722,-274 1722,-222 1368,-222"/>
</g>
<g id="clust16" class="cluster">
<title>cluster_ListModule</title>
<polygon fill="none" stroke="#000000" stroke-dasharray="1,5" points="8,-70 8,-282 266,-282 266,-70 8,-70"/>
</g>
<g id="clust17" class="cluster">
<title>cluster_ListModule_declarations</title>
<polygon fill="none" stroke="#000000" points="16,-78 16,-130 136,-130 136,-78 16,-78"/>
</g>
<g id="clust19" class="cluster">
<title>cluster_ListModule_imports</title>
<polygon fill="none" stroke="#000000" points="144,-78 144,-130 258,-130 258,-78 144,-78"/>
</g>
<g id="clust20" class="cluster">
<title>cluster_ListModule_exports</title>
<polygon fill="none" stroke="#000000" points="126,-222 126,-274 248,-274 248,-222 126,-222"/>
</g>
<g id="clust23" class="cluster">
<title>cluster_LoginModule</title>
<polygon fill="none" stroke="#000000" stroke-dasharray="1,5" points="274,-70 274,-282 424,-282 424,-70 274,-70"/>
</g>
<g id="clust24" class="cluster">
<title>cluster_LoginModule_declarations</title>
<polygon fill="none" stroke="#000000" points="284,-78 284,-130 414,-130 414,-78 284,-78"/>
</g>
<g id="clust27" class="cluster">
<title>cluster_LoginModule_exports</title>
<polygon fill="none" stroke="#000000" points="282,-222 282,-274 416,-274 416,-222 282,-222"/>
</g>
<g id="clust30" class="cluster">
<title>cluster_MainModule</title>
<polygon fill="none" stroke="#000000" stroke-dasharray="1,5" points="432,-138 432,-206 854,-206 854,-138 432,-138"/>
</g>
<g id="clust31" class="cluster">
<title>cluster_MainModule_declarations</title>
<polygon fill="none" stroke="#000000" points="440,-146 440,-198 566,-198 566,-146 440,-146"/>
</g>
<g id="clust33" class="cluster">
<title>cluster_MainModule_imports</title>
<polygon fill="none" stroke="#000000" points="574,-146 574,-198 846,-198 846,-146 574,-146"/>
</g>
<g id="clust43" class="cluster">
<title>cluster_ScreensModule</title>
<polygon fill="none" stroke="#000000" stroke-dasharray="1,5" points="586,-214 586,-282 1273,-282 1273,-214 586,-214"/>
</g>
<g id="clust44" class="cluster">
<title>cluster_ScreensModule_declarations</title>
<polygon fill="none" stroke="#000000" points="937,-222 937,-274 1265,-274 1265,-222 937,-222"/>
</g>
<g id="clust48" class="cluster">
<title>cluster_ScreensModule_exports</title>
<polygon fill="none" stroke="#000000" points="594,-222 594,-274 929,-274 929,-222 594,-222"/>
</g>
<!-- MainModule -->
<g id="node1" class="node">
<title>MainModule</title>
<polygon fill="#8dd3c7" stroke="#000000" points="542.5997,-266 539.5997,-270 518.5997,-270 515.5997,-266 453.4003,-266 453.4003,-230 542.5997,-230 542.5997,-266"/>
<text text-anchor="middle" x="498" y="-243.8" font-family="Times,serif" font-size="14.00" fill="#000000">MainModule</text>
</g>
<!-- AppModule -->
<g id="node2" class="node">
<title>AppModule</title>
<polygon fill="#8dd3c7" stroke="#000000" points="528.6571,-331 525.6571,-335 504.6571,-335 501.6571,-331 445.3429,-331 445.3429,-295 528.6571,-295 528.6571,-331"/>
<text text-anchor="middle" x="487" y="-308.8" font-family="Times,serif" font-size="14.00" fill="#000000">AppModule</text>
</g>
<!-- MainModule&#45;&gt;AppModule -->
<g id="edge1" class="edge">
<title>MainModule&#45;&gt;AppModule</title>
<path fill="none" stroke="#000000" d="M491.1392,-266.1061C491.1392,-266.1061 491.1392,-284.991 491.1392,-284.991"/>
<polygon fill="#000000" stroke="#000000" points="487.6393,-284.9909 491.1392,-294.991 494.6393,-284.991 487.6393,-284.9909"/>
</g>
<!-- MainComponent  -->
<g id="node3" class="node">
<title>MainComponent </title>
<polygon fill="#80b1d3" stroke="#000000" points="562.3828,-396 447.6172,-396 447.6172,-360 562.3828,-360 562.3828,-396"/>
<text text-anchor="middle" x="505" y="-373.8" font-family="Times,serif" font-size="14.00" fill="#000000">MainComponent </text>
</g>
<!-- MainModule&#45;&gt;MainComponent  -->
<g id="edge20" class="edge">
<title>MainModule&#45;&gt;MainComponent </title>
<path fill="none" stroke="#000000" stroke-dasharray="5,2" d="M535.689,-266.0759C535.689,-266.0759 535.689,-349.6585 535.689,-349.6585"/>
<polygon fill="#000000" stroke="#000000" points="532.1891,-349.6585 535.689,-359.6585 539.1891,-349.6585 532.1891,-349.6585"/>
</g>
<!-- AppModule&#45;&gt;MainComponent  -->
<g id="edge2" class="edge">
<title>AppModule&#45;&gt;MainComponent </title>
<path fill="none" stroke="#000000" stroke-dasharray="1,5" d="M488.3186,-331.1061C488.3186,-331.1061 488.3186,-349.991 488.3186,-349.991"/>
<polygon fill="#000000" stroke="#000000" points="484.8186,-349.9909 488.3186,-359.991 491.8186,-349.991 484.8186,-349.9909"/>
</g>
<!-- CmpButtonComponent -->
<g id="node4" class="node">
<title>CmpButtonComponent</title>
<polygon fill="#ffffb3" stroke="#000000" points="1793.1778,-122 1646.8222,-122 1646.8222,-86 1793.1778,-86 1793.1778,-122"/>
<text text-anchor="middle" x="1720" y="-99.8" font-family="Times,serif" font-size="14.00" fill="#000000">CmpButtonComponent</text>
</g>
<!-- ComponentsModule -->
<g id="node7" class="node">
<title>ComponentsModule</title>
<polygon fill="#8dd3c7" stroke="#000000" points="1619.3272,-190 1616.3272,-194 1595.3272,-194 1592.3272,-190 1488.6728,-190 1488.6728,-154 1619.3272,-154 1619.3272,-190"/>
<text text-anchor="middle" x="1554" y="-167.8" font-family="Times,serif" font-size="14.00" fill="#000000">ComponentsModule</text>
</g>
<!-- CmpButtonComponent&#45;&gt;ComponentsModule -->
<g id="edge3" class="edge">
<title>CmpButtonComponent&#45;&gt;ComponentsModule</title>
<path fill="none" stroke="#000000" d="M1680.4483,-122.2228C1680.4483,-142.3652 1680.4483,-172 1680.4483,-172 1680.4483,-172 1629.4465,-172 1629.4465,-172"/>
<polygon fill="#000000" stroke="#000000" points="1629.4465,-168.5001 1619.4465,-172 1629.4464,-175.5001 1629.4465,-168.5001"/>
</g>
<!-- CmpHeaderComponent -->
<g id="node5" class="node">
<title>CmpHeaderComponent</title>
<polygon fill="#ffffb3" stroke="#000000" points="1628.4706,-122 1479.5294,-122 1479.5294,-86 1628.4706,-86 1628.4706,-122"/>
<text text-anchor="middle" x="1554" y="-99.8" font-family="Times,serif" font-size="14.00" fill="#000000">CmpHeaderComponent</text>
</g>
<!-- CmpHeaderComponent&#45;&gt;ComponentsModule -->
<g id="edge4" class="edge">
<title>CmpHeaderComponent&#45;&gt;ComponentsModule</title>
<path fill="none" stroke="#000000" d="M1554,-122.2228C1554,-122.2228 1554,-143.7269 1554,-143.7269"/>
<polygon fill="#000000" stroke="#000000" points="1550.5001,-143.7269 1554,-153.7269 1557.5001,-143.727 1550.5001,-143.7269"/>
</g>
<!-- CmpSearchbarComponent -->
<g id="node6" class="node">
<title>CmpSearchbarComponent</title>
<polygon fill="#ffffb3" stroke="#000000" points="1461.0225,-122 1296.9775,-122 1296.9775,-86 1461.0225,-86 1461.0225,-122"/>
<text text-anchor="middle" x="1379" y="-99.8" font-family="Times,serif" font-size="14.00" fill="#000000">CmpSearchbarComponent</text>
</g>
<!-- CmpSearchbarComponent&#45;&gt;ComponentsModule -->
<g id="edge5" class="edge">
<title>CmpSearchbarComponent&#45;&gt;ComponentsModule</title>
<path fill="none" stroke="#000000" d="M1418.625,-122.2479C1418.625,-145.0179 1418.625,-181 1418.625,-181 1418.625,-181 1478.6917,-181 1478.6917,-181"/>
<polygon fill="#000000" stroke="#000000" points="1478.6917,-184.5001 1488.6917,-181 1478.6917,-177.5001 1478.6917,-184.5001"/>
</g>
<!-- CmpHeaderComponent  -->
<g id="node8" class="node">
<title>CmpHeaderComponent </title>
<polygon fill="#fb8072" stroke="#000000" points="1714.4713,-266 1561.5287,-266 1561.5287,-230 1714.4713,-230 1714.4713,-266"/>
<text text-anchor="middle" x="1638" y="-243.8" font-family="Times,serif" font-size="14.00" fill="#000000">CmpHeaderComponent </text>
</g>
<!-- ComponentsModule&#45;&gt;CmpHeaderComponent  -->
<g id="edge6" class="edge">
<title>ComponentsModule&#45;&gt;CmpHeaderComponent </title>
<path fill="none" stroke="#000000" stroke-dasharray="5,2" d="M1590.4641,-190.0109C1590.4641,-190.0109 1590.4641,-219.855 1590.4641,-219.855"/>
<polygon fill="#000000" stroke="#000000" points="1586.9641,-219.8549 1590.4641,-229.855 1593.9641,-219.855 1586.9641,-219.8549"/>
</g>
<!-- CmpSearchbarComponent  -->
<g id="node9" class="node">
<title>CmpSearchbarComponent </title>
<polygon fill="#fb8072" stroke="#000000" points="1544.0218,-266 1375.9782,-266 1375.9782,-230 1544.0218,-230 1544.0218,-266"/>
<text text-anchor="middle" x="1460" y="-243.8" font-family="Times,serif" font-size="14.00" fill="#000000">CmpSearchbarComponent </text>
</g>
<!-- ComponentsModule&#45;&gt;CmpSearchbarComponent  -->
<g id="edge7" class="edge">
<title>ComponentsModule&#45;&gt;CmpSearchbarComponent </title>
<path fill="none" stroke="#000000" stroke-dasharray="5,2" d="M1516.4238,-190.0109C1516.4238,-190.0109 1516.4238,-219.855 1516.4238,-219.855"/>
<polygon fill="#000000" stroke="#000000" points="1512.9238,-219.8549 1516.4238,-229.855 1519.9238,-219.855 1512.9238,-219.8549"/>
</g>
<!-- ListComponent -->
<g id="node10" class="node">
<title>ListComponent</title>
<polygon fill="#ffffb3" stroke="#000000" points="127.6109,-122 24.3891,-122 24.3891,-86 127.6109,-86 127.6109,-122"/>
<text text-anchor="middle" x="76" y="-99.8" font-family="Times,serif" font-size="14.00" fill="#000000">ListComponent</text>
</g>
<!-- ListModule -->
<g id="node11" class="node">
<title>ListModule</title>
<polygon fill="#8dd3c7" stroke="#000000" points="227.8289,-190 224.8289,-194 203.8289,-194 200.8289,-190 146.1711,-190 146.1711,-154 227.8289,-154 227.8289,-190"/>
<text text-anchor="middle" x="187" y="-167.8" font-family="Times,serif" font-size="14.00" fill="#000000">ListModule</text>
</g>
<!-- ListComponent&#45;&gt;ListModule -->
<g id="edge8" class="edge">
<title>ListComponent&#45;&gt;ListModule</title>
<path fill="none" stroke="#000000" d="M76,-122.2228C76,-142.3652 76,-172 76,-172 76,-172 136.298,-172 136.298,-172"/>
<polygon fill="#000000" stroke="#000000" points="136.298,-175.5001 146.298,-172 136.298,-168.5001 136.298,-175.5001"/>
</g>
<!-- ListModule&#45;&gt;MainModule -->
<g id="edge15" class="edge">
<title>ListModule&#45;&gt;MainModule</title>
<path fill="none" stroke="#000000" d="M200.5547,-190.1097C200.5547,-199.897 200.5547,-210 200.5547,-210 200.5547,-210 471.2701,-210 471.2701,-210 471.2701,-210 471.2701,-219.8903 471.2701,-219.8903"/>
<polygon fill="#000000" stroke="#000000" points="467.7702,-219.8903 471.2701,-229.8903 474.7702,-219.8904 467.7702,-219.8903"/>
</g>
<!-- ListComponent  -->
<g id="node13" class="node">
<title>ListComponent </title>
<polygon fill="#fb8072" stroke="#000000" points="240.1115,-266 133.8885,-266 133.8885,-230 240.1115,-230 240.1115,-266"/>
<text text-anchor="middle" x="187" y="-243.8" font-family="Times,serif" font-size="14.00" fill="#000000">ListComponent </text>
</g>
<!-- ListModule&#45;&gt;ListComponent  -->
<g id="edge10" class="edge">
<title>ListModule&#45;&gt;ListComponent </title>
<path fill="none" stroke="#000000" stroke-dasharray="5,2" d="M173.4453,-190.0109C173.4453,-190.0109 173.4453,-219.855 173.4453,-219.855"/>
<polygon fill="#000000" stroke="#000000" points="169.9454,-219.8549 173.4453,-229.855 176.9454,-219.855 169.9454,-219.8549"/>
</g>
<!-- SharedModule -->
<g id="node12" class="node">
<title>SharedModule</title>
<polygon fill="#8dd3c7" stroke="#000000" points="250.4231,-122 247.4231,-126 226.4231,-126 223.4231,-122 151.5769,-122 151.5769,-86 250.4231,-86 250.4231,-122"/>
<text text-anchor="middle" x="201" y="-99.8" font-family="Times,serif" font-size="14.00" fill="#000000">SharedModule</text>
</g>
<!-- SharedModule&#45;&gt;MainModule -->
<g id="edge19" class="edge">
<title>SharedModule&#45;&gt;MainModule</title>
<path fill="none" stroke="#000000" d="M243.6073,-122.0569C243.6073,-149.8657 243.6073,-200 243.6073,-200 243.6073,-200 489.09,-200 489.09,-200 489.09,-200 489.09,-219.8533 489.09,-219.8533"/>
<polygon fill="#000000" stroke="#000000" points="485.5901,-219.8532 489.09,-229.8533 492.5901,-219.8533 485.5901,-219.8532"/>
</g>
<!-- SharedModule&#45;&gt;ListModule -->
<g id="edge9" class="edge">
<title>SharedModule&#45;&gt;ListModule</title>
<path fill="none" stroke="#000000" d="M189.7265,-122.2228C189.7265,-122.2228 189.7265,-143.7269 189.7265,-143.7269"/>
<polygon fill="#000000" stroke="#000000" points="186.2266,-143.7269 189.7265,-153.7269 193.2266,-143.727 186.2266,-143.7269"/>
</g>
<!-- LoginModule -->
<g id="node15" class="node">
<title>LoginModule</title>
<polygon fill="#8dd3c7" stroke="#000000" points="395.493,-190 392.493,-194 371.493,-194 368.493,-190 302.507,-190 302.507,-154 395.493,-154 395.493,-190"/>
<text text-anchor="middle" x="349" y="-167.8" font-family="Times,serif" font-size="14.00" fill="#000000">LoginModule</text>
</g>
<!-- SharedModule&#45;&gt;LoginModule -->
<g id="edge12" class="edge">
<title>SharedModule&#45;&gt;LoginModule</title>
<path fill="none" stroke="#000000" d="M246.9092,-122.2228C246.9092,-142.3652 246.9092,-172 246.9092,-172 246.9092,-172 292.4359,-172 292.4359,-172"/>
<polygon fill="#000000" stroke="#000000" points="292.4359,-175.5001 302.4359,-172 292.4358,-168.5001 292.4359,-175.5001"/>
</g>
<!-- LoginComponent -->
<g id="node14" class="node">
<title>LoginComponent</title>
<polygon fill="#ffffb3" stroke="#000000" points="406.2758,-122 291.7242,-122 291.7242,-86 406.2758,-86 406.2758,-122"/>
<text text-anchor="middle" x="349" y="-99.8" font-family="Times,serif" font-size="14.00" fill="#000000">LoginComponent</text>
</g>
<!-- LoginComponent&#45;&gt;LoginModule -->
<g id="edge11" class="edge">
<title>LoginComponent&#45;&gt;LoginModule</title>
<path fill="none" stroke="#000000" d="M349,-122.2228C349,-122.2228 349,-143.7269 349,-143.7269"/>
<polygon fill="#000000" stroke="#000000" points="345.5001,-143.7269 349,-153.7269 352.5001,-143.727 345.5001,-143.7269"/>
</g>
<!-- LoginModule&#45;&gt;MainModule -->
<g id="edge16" class="edge">
<title>LoginModule&#45;&gt;MainModule</title>
<path fill="none" stroke="#000000" d="M395.5171,-172C412.0554,-172 426.6548,-172 426.6548,-172 426.6548,-172 426.6548,-248 426.6548,-248 426.6548,-248 443.2211,-248 443.2211,-248"/>
<polygon fill="#000000" stroke="#000000" points="443.2212,-251.5001 453.2211,-248 443.2211,-244.5001 443.2212,-251.5001"/>
</g>
<!-- LoginComponent  -->
<g id="node16" class="node">
<title>LoginComponent </title>
<polygon fill="#fb8072" stroke="#000000" points="408.2759,-266 289.7241,-266 289.7241,-230 408.2759,-230 408.2759,-266"/>
<text text-anchor="middle" x="349" y="-243.8" font-family="Times,serif" font-size="14.00" fill="#000000">LoginComponent </text>
</g>
<!-- LoginModule&#45;&gt;LoginComponent  -->
<g id="edge13" class="edge">
<title>LoginModule&#45;&gt;LoginComponent </title>
<path fill="none" stroke="#000000" stroke-dasharray="5,2" d="M349,-190.0109C349,-190.0109 349,-219.855 349,-219.855"/>
<polygon fill="#000000" stroke="#000000" points="345.5001,-219.8549 349,-229.855 352.5001,-219.855 345.5001,-219.8549"/>
</g>
<!-- MainComponent -->
<g id="node17" class="node">
<title>MainComponent</title>
<polygon fill="#ffffb3" stroke="#000000" points="558.3823,-190 447.6177,-190 447.6177,-154 558.3823,-154 558.3823,-190"/>
<text text-anchor="middle" x="503" y="-167.8" font-family="Times,serif" font-size="14.00" fill="#000000">MainComponent</text>
</g>
<!-- MainComponent&#45;&gt;MainModule -->
<g id="edge14" class="edge">
<title>MainComponent&#45;&gt;MainModule</title>
<path fill="none" stroke="#000000" d="M506.91,-190.0109C506.91,-190.0109 506.91,-219.855 506.91,-219.855"/>
<polygon fill="#000000" stroke="#000000" points="503.4101,-219.8549 506.91,-229.855 510.4101,-219.855 503.4101,-219.8549"/>
</g>
<!-- MainRoutingModule -->
<g id="node18" class="node">
<title>MainRoutingModule</title>
<polygon fill="#8dd3c7" stroke="#000000" points="716.2176,-190 713.2176,-194 692.2176,-194 689.2176,-190 581.7824,-190 581.7824,-154 716.2176,-154 716.2176,-190"/>
<text text-anchor="middle" x="649" y="-167.8" font-family="Times,serif" font-size="14.00" fill="#000000">MainRoutingModule</text>
</g>
<!-- MainRoutingModule&#45;&gt;MainModule -->
<g id="edge17" class="edge">
<title>MainRoutingModule&#45;&gt;MainModule</title>
<path fill="none" stroke="#000000" d="M591.855,-190.0109C591.855,-212.4852 591.855,-248 591.855,-248 591.855,-248 552.7285,-248 552.7285,-248"/>
<polygon fill="#000000" stroke="#000000" points="552.7285,-244.5001 542.7285,-248 552.7285,-251.5001 552.7285,-244.5001"/>
</g>
<!-- ScreensModule -->
<g id="node19" class="node">
<title>ScreensModule</title>
<polygon fill="#8dd3c7" stroke="#000000" points="837.5814,-190 834.5814,-194 813.5814,-194 810.5814,-190 734.4186,-190 734.4186,-154 837.5814,-154 837.5814,-190"/>
<text text-anchor="middle" x="786" y="-167.8" font-family="Times,serif" font-size="14.00" fill="#000000">ScreensModule</text>
</g>
<!-- ScreensModule&#45;&gt;MainModule -->
<g id="edge18" class="edge">
<title>ScreensModule&#45;&gt;MainModule</title>
<path fill="none" stroke="#000000" d="M742.3666,-190.1467C742.3666,-203.7395 742.3666,-220 742.3666,-220 742.3666,-220 524.7299,-220 524.7299,-220 524.7299,-220 524.7299,-220.9793 524.7299,-220.9793"/>
<polygon fill="#000000" stroke="#000000" points="521.23,-219.793 524.7299,-229.793 528.23,-219.7931 521.23,-219.793"/>
</g>
<!-- ScreenListComponent  -->
<g id="node22" class="node">
<title>ScreenListComponent </title>
<polygon fill="#fb8072" stroke="#000000" points="921.1981,-266 776.8019,-266 776.8019,-230 921.1981,-230 921.1981,-266"/>
<text text-anchor="middle" x="849" y="-243.8" font-family="Times,serif" font-size="14.00" fill="#000000">ScreenListComponent </text>
</g>
<!-- ScreensModule&#45;&gt;ScreenListComponent  -->
<g id="edge23" class="edge">
<title>ScreensModule&#45;&gt;ScreenListComponent </title>
<path fill="none" stroke="#000000" stroke-dasharray="5,2" d="M807.0959,-190.0109C807.0959,-190.0109 807.0959,-219.855 807.0959,-219.855"/>
<polygon fill="#000000" stroke="#000000" points="803.596,-219.8549 807.0959,-229.855 810.596,-219.855 803.596,-219.8549"/>
</g>
<!-- ScreenLoginComponent  -->
<g id="node23" class="node">
<title>ScreenLoginComponent </title>
<polygon fill="#fb8072" stroke="#000000" points="758.363,-266 601.637,-266 601.637,-230 758.363,-230 758.363,-266"/>
<text text-anchor="middle" x="680" y="-243.8" font-family="Times,serif" font-size="14.00" fill="#000000">ScreenLoginComponent </text>
</g>
<!-- ScreensModule&#45;&gt;ScreenLoginComponent  -->
<g id="edge24" class="edge">
<title>ScreensModule&#45;&gt;ScreenLoginComponent </title>
<path fill="none" stroke="#000000" stroke-dasharray="5,2" d="M750.274,-190.0109C750.274,-190.0109 750.274,-219.855 750.274,-219.855"/>
<polygon fill="#000000" stroke="#000000" points="746.7741,-219.8549 750.274,-229.855 753.7741,-219.855 746.7741,-219.8549"/>
</g>
<!-- ScreenListComponent -->
<g id="node20" class="node">
<title>ScreenListComponent</title>
<polygon fill="#ffffb3" stroke="#000000" points="1256.6979,-266 1115.3021,-266 1115.3021,-230 1256.6979,-230 1256.6979,-266"/>
<text text-anchor="middle" x="1186" y="-243.8" font-family="Times,serif" font-size="14.00" fill="#000000">ScreenListComponent</text>
</g>
<!-- ScreenListComponent&#45;&gt;ScreensModule -->
<g id="edge21" class="edge">
<title>ScreenListComponent&#45;&gt;ScreensModule</title>
<path fill="none" stroke="#000000" d="M1186,-229.9737C1186,-205.0227 1186,-163 1186,-163 1186,-163 847.8829,-163 847.8829,-163"/>
<polygon fill="#000000" stroke="#000000" points="847.883,-159.5001 837.8829,-163 847.8829,-166.5001 847.883,-159.5001"/>
</g>
<!-- ScreenLoginComponent -->
<g id="node21" class="node">
<title>ScreenLoginComponent</title>
<polygon fill="#ffffb3" stroke="#000000" points="1097.3627,-266 944.6373,-266 944.6373,-230 1097.3627,-230 1097.3627,-266"/>
<text text-anchor="middle" x="1021" y="-243.8" font-family="Times,serif" font-size="14.00" fill="#000000">ScreenLoginComponent</text>
</g>
<!-- ScreenLoginComponent&#45;&gt;ScreensModule -->
<g id="edge22" class="edge">
<title>ScreenLoginComponent&#45;&gt;ScreensModule</title>
<path fill="none" stroke="#000000" d="M1021,-229.9891C1021,-207.5148 1021,-172 1021,-172 1021,-172 847.5717,-172 847.5717,-172"/>
<polygon fill="#000000" stroke="#000000" points="847.5718,-168.5001 837.5717,-172 847.5717,-175.5001 847.5718,-168.5001"/>
</g>
</g>
</svg>
